# xmcd
#
# Track frame offsets: 
#        150
#        19372
#        35805
#        49195
#        61570
#        72032
#        84407
#        99532
#        111007
#        121530
#        134377
#        147202
#        160325
#        175282
#        192460
#        204042
#        214885
#        231260
#        241777
#        257275
#        273012
#        283060
#        294845
#        309350
#        325992
#
# Disc length: 4516 seconds
#
# Revision: 4
# Processed by: cddbd v1.5.2PL0 Copyright (c) Steve Scherf et al.
# Submitted via: ExactAudioCopyFreeDBPlugin 1.0
#
DISCID=5c11a219
DTITLE=Various  - The Blue Horizon Story Vol.1 - The Pre-CBS Years (Di
DTITLE=sc 1)
DYEAR=1997
DGENRE=Blues
TTITLE0=Hubert Sumlin - Across The Board
TTITLE1=Hubert Sumlin - Sumlin Boogie
TTITLE2=Woodrow Adams - Baby You Just Don't Know
TTITLE3=Woodrow Adams - Wine Head Woman
TTITLE4=Jimmy McCrackelin - Christmas Time Pt. 1
TTITLE5=J.B. Lenore - Mojo Boogie
TTITLE6=J.B. Lenore - I Don't Care What Nobody Say
TTITLE7=Doctor Isajah Ross - Mean Old World
TTITLE8=T.S. McPhee - Someone To Love Me
TTITLE9=Jo Ann Kelly - I Feel So Good
TTITLE10=Drifting Slim - Good Morning Baby
TTITLE11=Drifting Slim - My Sweet Woman
TTITLE12=John Mayall and Eric Clapton - Lonely Years
TTITLE13=John Mayall and Eric Clapton - Bernard Jenkins
TTITLE14=Houston Boines - Superintendent Blues
TTITLE15=Houston Boines - Monkey Motions
TTITLE16=Savoy Brown's Blues Band - Can't Quit You Baby
TTITLE17=Champion Jack Dupree - Get Your Head happy
TTITLE18=Champion Jack Dupree - Talk All In My Sleep
TTITLE19=Stone's Masonry - Hot Rock
TTITLE20=Hound Dog Taylor - Christine
TTITLE21='Little' Mack Simmons and His Boys - Come Back
TTITLE22='Little' Mack Simmons and His Boys - My Walking Blues
TTITLE23=Eddie Boyd - It's So Miserable To Be Alone
TTITLE24=Boyd, Eddie - Empty Arms
EXTD=Compilation: Sony/BMG: 2006
EXTT0=
EXTT1=
EXTT2=
EXTT3=
EXTT4=
EXTT5=
EXTT6=
EXTT7=
EXTT8=
EXTT9=
EXTT10=
EXTT11=
EXTT12=
EXTT13=
EXTT14=
EXTT15=
EXTT16=
EXTT17=
EXTT18=
EXTT19=
EXTT20=
EXTT21=
EXTT22=
EXTT23=
EXTT24=
PLAYORDER=
